<?xml version="1.0" encoding="utf-8"?>

<!-- The icon can be used freely in both personal and commercial projects with no attribution required, but always appreciated. 
You may NOT sub-license, resell, rent, redistribute or otherwise transfer the icon without express written permission from iconmonstr.com -->

<!DOCTYPE svg PUBLIC "-//W3C//DTD SVG 1.1//EN" "http://www.w3.org/Graphics/SVG/1.1/DTD/svg11.dtd">
<svg version="1.1" xmlns="http://www.w3.org/2000/svg" xmlns:xlink="http://www.w3.org/1999/xlink" x="0px" y="0px"
	 width="512px" fill="white" height="512px" viewBox="0 0 512 512" enable-background="new 0 0 512 512" xml:space="preserve">
<path id="coin-7-icon" d="M384.016,270.496c31.973,0,57.984,26.012,57.984,57.985c0,31.973-26.012,57.984-57.984,57.984
	s-57.984-26.012-57.984-57.984C326.031,296.508,352.043,270.496,384.016,270.496 M384.016,250.496
	c-43.069,0-77.984,34.915-77.984,77.985c0,43.069,34.915,77.984,77.984,77.984c43.071,0,77.984-34.915,77.984-77.984
	C462,285.411,427.087,250.496,384.016,250.496L384.016,250.496z M390.564,361.4v8.183h-11.707v-7.318
	c-5.622-0.481-13.042-2.519-18.507-5.531l3.872-13.492c5.07,1.979,12.051,4.375,18.078,4.375c1.332,0,2.616-0.118,3.825-0.381
	c5.843-1.275,7.314-6.521,0.44-9.486c-5.81-2.607-25.797-5.333-25.797-22.05c0-6.924,5.189-16.441,18.088-19.258v-8.305h11.707
	v7.621c5.016,0.345,10.134,1.272,16.047,3.12c-0.593,2.581-3.148,13.788-3.148,13.788c-3.807-1.295-9.859-3.492-15.854-3.492
	c-0.436,0-0.869,0.013-1.304,0.036c-7.913,0.442-8.479,6.223-3.146,8.893c10.944,4.948,26.797,9.156,26.797,23.916
	C409.971,353.425,401.082,359.918,390.564,361.4z M281.809,315.679h-81.705v-30.021h90.245
	C286.06,295.002,283.127,305.094,281.809,315.679z M298.826,270.647h-98.723v-30.021h130.091v0.067
	C317.744,248.355,307.04,258.588,298.826,270.647z M330.194,180.586H200.104v-30.021h130.091V180.586z M330.194,225.617H200.104
	v-30.021h130.091v29.552V225.617z M286.184,360.71h-86.08v-30.021h80.939C281.264,341.15,283.054,351.231,286.184,360.71z
	 M330.194,135.555H200.104v-30.021h130.091V135.555z M315.977,405.74H200.104V375.72h92.4
	C298.421,387.136,306.413,397.309,315.977,405.74z M50,375.72h130.09v30.021H50V375.72z M50,240.627h130.09v30.021H50V240.627z
	 M50,330.689h130.09v30.021H50V330.689z M50,285.658h130.09v30.021H50V285.658z"/>
</svg>
